<?xml version="1.0" encoding="utf-8"?>
<svg viewBox="0 0 512 512" xmlns="http://www.w3.org/2000/svg" xmlns:bx="https://boxy-svg.com">
  <defs>
    <bx:grid x="0" y="0" width="16" height="16"/>
  </defs>
  <g style="">
    <title>_ Working</title>
    <path style="fill: rgb(216, 216, 216); stroke-linecap: round; stroke-linejoin: round; stroke-width: 33px; stroke: rgba(0, 0, 0, 0.19); pointer-events: none; visibility: hidden;" d="M 64 256 L 192 128 L 352 96 L 384 128 L 448 160 L 446.711 383.894 L 159.797 384 L 64 256 Z">
      <title>Original path with stroke</title>
    </path>
    <path style="fill: rgba(234, 82, 82, 0.64); visibility: hidden;" d="M 469.852 177.078 C 477.771 180.878 480.077 186.184 479.998 191.937 C 479.118 256 477.98 392.664 478.309 399.238 C 478.856 410.169 470.654 415.674 462.774 415.571 C 451.443 415.422 155.173 415.976 142.897 416 C 135.629 416.014 130.259 410.652 126.932 405.93 C 110.791 383.022 36.93 286.55 33.668 281.702 C 26.768 271.448 32.204 262.636 34.899 260.032 C 75.133 221.157 132.955 177.968 160.503 150.926 C 165.346 146.172 169.065 144.87 179.138 142.729 C 188.908 140.653 349.773 114.947 360.73 112.664 C 371.393 110.442 375.309 112.981 379.456 117.204 C 389.118 127.043 416 160 416 160 C 416 160 463.264 173.917 469.852 177.078 Z">
      <title>Rounded path</title>
    </path>
    <path style="fill: rgb(178, 178, 174); visibility: hidden;" d="M 469.852 177.078 C 477.771 180.878 480.077 186.184 479.998 191.937 C 479.118 256 477.98 392.664 478.309 399.238 C 478.856 410.169 470.654 415.674 462.774 415.571 C 451.443 415.422 155.173 415.976 142.897 416 C 135.629 416.014 130.259 410.652 126.932 405.93 C 110.791 383.022 36.93 286.55 33.668 281.702 C 26.768 271.448 32.204 262.636 34.899 260.032 C 75.133 221.157 132.955 177.968 160.503 150.926 C 165.346 146.172 169.065 144.87 179.138 142.729 C 188.908 140.653 349.773 114.947 360.73 112.664 C 371.393 110.442 375.309 112.981 379.456 117.204 C 389.118 127.043 416 160 416 160 C 416 160 463.264 173.917 469.852 177.078 Z">
      <title>Backing Original</title>
    </path>
    <path style="fill: none; stroke-width: 5px; visibility: hidden;" d="M 248.399 297.652 C 248.399 297.652 239.916 306.543 247.152 311.375 C 257.255 318.121 261.597 307.583 273.742 307.847 C 285.615 308.105 290.055 319.465 298.757 312.244 C 305.574 306.587 295.289 296.209 295.289 296.209">
      <title>Original Mouth Stroke</title>
    </path>
    <g style="visibility: hidden;">
      <title>Plaster</title>
      <path d="M 144 32 H 208 A 16 16 0 0 1 224 48 V 48 A 16 16 0 0 1 208 64 H 144 A 16 16 0 0 1 128 48 V 48 A 16 16 0 0 1 144 32 Z" style="fill: rgb(229, 192, 169);">
        <title>Backing</title>
      </path>
      <path d="M 164 35 H 188 A 4 4 0 0 1 192 39 V 57 A 4 4 0 0 1 188 61 H 164 A 4 4 0 0 1 160 57 V 39 A 4 4 0 0 1 164 35 Z" style="fill: rgb(219, 160, 123);">
        <title>Cover</title>
      </path>
      <g transform="matrix(0.909624, 0, 0, 0.909624, 16.865139, 4.276351)" style="">
        <title>Breathing Holes</title>
        <ellipse style="fill: rgb(241, 221, 208);" cx="166" cy="42" rx="2" ry="2"/>
        <ellipse style="fill: rgb(241, 221, 208);" cx="172" cy="42" rx="2" ry="2"/>
        <ellipse style="fill: rgb(241, 221, 208);" cx="178" cy="42" rx="2" ry="2"/>
        <ellipse style="fill: rgb(241, 221, 208);" cx="184" cy="42" rx="2" ry="2"/>
        <ellipse style="fill: rgb(241, 221, 208);" cx="169" cy="48" rx="2" ry="2"/>
        <ellipse style="fill: rgb(241, 221, 208);" cx="175" cy="48" rx="2" ry="2"/>
        <ellipse style="fill: rgb(241, 221, 208);" cx="181" cy="48" rx="2" ry="2"/>
        <ellipse style="fill: rgb(241, 221, 208);" cx="187" cy="48" rx="2" ry="2"/>
        <ellipse style="fill: rgb(241, 221, 208);" cx="166" cy="54" rx="2" ry="2"/>
        <ellipse style="fill: rgb(241, 221, 208);" cx="172" cy="54" rx="2" ry="2"/>
        <ellipse style="fill: rgb(241, 221, 208);" cx="178" cy="54" rx="2" ry="2"/>
        <ellipse style="fill: rgb(241, 221, 208);" cx="184" cy="54" rx="2" ry="2"/>
        <ellipse style="fill: rgb(241, 221, 208);" cx="163" cy="48" rx="2" ry="2"/>
      </g>
    </g>
  </g>
  <g style="">
    <title>Rock</title>
    <path d="M 472.015 172.57 C 476.556 174.857 480.246 178.019 482.179 181.148 C 484.191 184.407 484.988 188.601 484.998 192.006 C 484.118 256.055 482.977 392.56 483.303 398.988 C 483.346 405.634 480.756 411.847 477.087 415.222 C 473.37 418.641 467.477 420.492 462.708 420.571 C 451.415 420.422 155.182 420.976 142.907 421 C 133.867 420.283 126.449 413.861 122.845 408.81 C 115.419 398.269 31.234 287.034 29.52 284.493 C 25.651 278.162 24.814 271.443 25.801 266.93 C 26.844 262.161 29.778 258.086 31.425 256.436 C 71.9 217.356 129.708 174.181 157.001 147.358 C 159.943 144.523 163.166 142.583 166.665 140.934 C 168.784 139.935 171.126 139.494 173.391 138.897 C 174.946 138.487 176.387 138.202 178.099 137.838 C 187.994 135.739 348.867 110.031 359.71 107.769 C 372.243 105.897 378.453 109.132 383.023 113.701 C 386.12 116.859 390.906 122.282 395.94 128.154 L 401.196 134.337 C 410.741 145.643 416.294 152.466 418.896 155.643 C 427.001 158.048 465.052 169.265 472.015 172.57 Z" style="fill: rgb(104, 104, 100);">
      <title>Outline</title>
    </path>
    <path style="fill: rgb(178, 178, 174);" d="M 469.852 177.078 C 477.771 180.878 480.077 186.184 479.998 191.937 C 479.118 256 477.98 392.664 478.309 399.238 C 478.856 410.169 470.654 415.674 462.774 415.571 C 451.443 415.422 155.173 415.976 142.897 416 C 135.629 416.014 130.259 410.652 126.932 405.93 C 119.46 395.326 99.621 368.96 80.142 343.215 L 90.493 341.333 L 90.296 327.57 L 85.774 335.631 L 75.398 336.949 C 54.536 309.398 35.297 284.123 33.668 281.702 C 26.768 271.448 32.204 262.636 34.899 260.032 C 75.133 221.157 132.955 177.968 160.503 150.926 C 163.106 148.371 165.384 146.813 168.498 145.586 L 175.266 155.574 L 174.571 143.756 C 175.938 143.424 177.449 143.088 179.138 142.729 C 188.908 140.653 349.773 114.947 360.73 112.664 C 371.393 110.442 375.309 112.981 379.456 117.204 C 382.461 120.264 387.133 125.562 392.143 131.408 L 388.178 138.911 L 397.376 137.563 C 406.894 148.836 416 160 416 160 C 416 160 463.264 173.917 469.852 177.078 Z">
      <title>Backing</title>
    </path>
    <path style="stroke-width: 5px; fill: rgb(163, 163, 158);" d="M 416.783 259.275 C 410.548 257.692 414.758 177.778 415.789 159.742 C 415.928 159.911 416 160 416 160 C 416 160 463.264 173.917 469.852 177.078 C 471.564 177.899 473.014 178.791 474.233 179.743 C 455.769 209.208 422.531 260.735 416.783 259.275 Z">
      <title>Shadow</title>
    </path>
    <path style="stroke-width: 5px; fill: rgb(171, 171, 166);" d="M 384.914 406.414 C 384.914 406.414 411.276 283.478 416.68 281.082 C 421.049 279.145 460.774 342.248 478.323 370.569 C 478.283 378.166 478.258 384.58 478.252 389.422 C 466.947 396.768 448.141 408.973 448 408.973 C 447.799 408.973 385.261 406.381 384.914 406.414 Z">
      <title>Shadow</title>
    </path>
    <path style="stroke-width: 5px; fill: rgb(153, 153, 148);" d="M 159.483 398.395 C 165.506 401.216 441.999 400 448.48 399.325 C 451.31 399.03 465.826 387.057 478.295 376.361 C 478.235 389.262 478.233 397.72 478.309 399.238 C 478.856 410.169 470.654 415.674 462.774 415.571 C 451.443 415.422 155.173 415.976 142.897 416 C 135.629 416.014 130.259 410.652 126.932 405.93 C 121.095 397.646 107.711 379.744 92.847 360.033 C 114.543 372.677 155.826 396.682 159.483 398.395 Z">
      <title>Shadow</title>
    </path>
    <path style="stroke-width: 5px; fill: rgb(171, 171, 166);" d="M 434.718 271.955 C 434.644 268.459 463.475 231.385 479.757 210.733 C 479.313 247.433 478.845 297.025 478.55 336.167 C 461.298 312.362 434.787 275.259 434.718 271.955 Z">
      <title>Shadow</title>
    </path>
    <path style="stroke-width: 5px; fill: rgb(193, 193, 190);" d="M 48.243 278.682 C 44.12 274.892 44.221 270.21 48.646 265.197 C 58.459 254.079 77.472 240.009 82.416 236.235 C 87.781 232.14 98.231 267.626 98.116 273.622 C 98.001 279.638 85.116 306.533 79.246 302.355 C 73.435 298.219 57.816 287.482 48.243 278.682 Z">
      <title>Highlight</title>
    </path>
    <g style="">
      <title>Blemishes</title>
      <ellipse style="stroke-width: 5px; fill: rgb(163, 163, 158);" cx="133.207" cy="245.207" rx="5.207" ry="5.207">
        <title>Blemish</title>
      </ellipse>
      <ellipse style="stroke-width: 5px; fill: rgb(163, 163, 158);" cx="149.207" cy="229.207" rx="5.207" ry="5.207">
        <title>Blemish</title>
      </ellipse>
      <ellipse style="stroke-width: 5px; fill: rgb(163, 163, 158);" cx="149.207" cy="250.793" rx="5.207" ry="5.207">
        <title>Blemish</title>
      </ellipse>
      <ellipse style="stroke-width: 5px; fill: rgb(163, 163, 158);" cx="383.423" cy="362.793" rx="5.207" ry="5.207">
        <title>Blemish</title>
      </ellipse>
      <ellipse style="stroke-width: 5px; fill: rgb(163, 163, 158);" cx="389.207" cy="346.793" ry="5.207" rx="5.207">
        <title>Blemish</title>
      </ellipse>
      <ellipse style="stroke-width: 5px; fill: rgb(163, 163, 158);" cx="389.207" cy="154.793" ry="5.207" rx="5.207">
        <title>Blemish</title>
      </ellipse>
      <ellipse style="stroke-width: 5px; fill: rgb(163, 163, 158);" cx="373.207" cy="149.207" ry="5.207" rx="5.207">
        <title>Blemish</title>
      </ellipse>
      <ellipse style="stroke-width: 5px; fill: rgb(163, 163, 158);" cx="378.793" cy="170.793" ry="5.207" rx="5.207">
        <title>Blemish</title>
      </ellipse>
    </g>
  </g>
  <g transform="matrix(1, 0, 0, 1, 16, 14)">
    <title>Face</title>
    <g transform="matrix(1, 0, 0, 1, 0, 2.416016)">
      <title>Left Face</title>
      <g>
        <title>Left Eye</title>
        <ellipse style="fill: rgb(44, 44, 42);" cx="215.586" cy="247.586" rx="23.586" ry="23.586"/>
        <ellipse style="fill: rgb(255, 255, 255);" cx="221.691" cy="244.704" rx="11.272" ry="11.272"/>
        <ellipse style="fill: rgb(255, 255, 255);" cx="203.657" cy="254.709" rx="4.446" ry="4.446"/>
        <ellipse style="fill: rgb(255, 255, 255);" cx="215.039" cy="263.427" rx="2.62" ry="2.62"/>
      </g>
      <path style="fill: rgb(44, 44, 42);" d="M 236.551 238.431 C 237.852 239.943 241.046 237.428 239.172 234.834 C 232.871 226.113 222.948 220.53 213.758 214.931 C 211.635 213.638 209.226 218.236 211.326 219.364 C 226.563 227.551 229.677 230.44 236.551 238.431 Z">
        <title>Left Brow</title>
      </path>
      <ellipse style="fill: rgb(252, 181, 181);" cx="215.614" cy="280.878" rx="16" ry="4.706">
        <title>Left Blush</title>
      </ellipse>
    </g>
    <g transform="matrix(1, 0, 0, 1, 0, 2.416016)">
      <title>Right Face</title>
      <g transform="matrix(1, 0, 0, 1, 112.828003, 0)">
        <title>Right Eye</title>
        <ellipse style="fill: rgb(44, 44, 42);" cx="215.586" cy="247.586" rx="23.586" ry="23.586"/>
        <ellipse style="fill: rgb(255, 255, 255);" cx="221.691" cy="244.704" rx="11.272" ry="11.272"/>
        <ellipse style="fill: rgb(255, 255, 255);" cx="203.657" cy="254.709" rx="4.446" ry="4.446"/>
        <ellipse style="fill: rgb(255, 255, 255);" cx="215.039" cy="263.427" rx="2.62" ry="2.62"/>
      </g>
      <path style="fill: rgb(44, 44, 42);" d="M 330.862 215.16 C 332.163 213.648 335.357 216.163 333.483 218.757 C 327.182 227.478 317.259 233.061 308.069 238.66 C 305.946 239.953 303.537 235.355 305.637 234.227 C 320.874 226.04 323.988 223.151 330.862 215.16 Z" transform="matrix(-1, 0, 0, -1, 638.885834, 453.590836)">
        <title>Right Brow</title>
      </path>
      <ellipse style="fill: rgb(252, 181, 181);" cx="329.026" cy="280.878" rx="16" ry="4.706">
        <title>Right Blush</title>
      </ellipse>
    </g>
    <path d="M 246.103 292.664 C 245.512 293.3 244.154 294.487 242.766 297.713 C 242.075 299.317 241.53 301.578 241.821 303.556 C 242.108 305.515 243.561 307.822 245.764 309.454 C 251.827 312.997 256.657 312.163 260.716 310.318 C 264.731 308.492 268.303 306.026 273.688 306.346 C 278.926 306.244 282.437 309.01 286.259 311.055 C 288.193 312.089 290.487 313.071 292.774 313.139 C 295.033 313.205 297.779 312.196 300.353 310.168 C 302.431 308.227 303.598 305.552 303.591 303.344 C 303.584 301.162 302.737 298.756 301.797 296.951 C 299.907 293.32 299.111 292.169 297.065 290.449 C 294.93 288.655 291.114 291.191 293.513 293.969 C 294.845 295.511 295.814 296.287 297.362 299.26 C 298.141 300.756 298.587 302.005 298.591 303.36 C 298.595 304.689 298.781 306.029 297.451 306.917 C 295.674 308.5 294.312 308.182 292.92 308.141 C 291.556 308.101 290.366 307.581 288.618 306.646 C 285.076 304.751 280.431 301.708 273.796 301.348 C 267.036 301.404 262.365 304.075 258.646 305.766 C 254.972 307.437 252.554 308.879 248.225 306.014 C 246.81 305.23 246.924 303.896 246.768 302.829 C 246.614 301.781 246.832 300.912 247.358 299.69 C 248.403 297.263 249.664 295.82 250.695 294.64 C 252.817 292.209 248.789 289.774 246.103 292.664 Z" style="fill: rgb(78, 78, 75);">
      <title>Mouth</title>
    </path>
  </g>
</svg>