<?xml version="1.0" encoding="utf-8"?>
<svg viewBox="0 0 512 512" xmlns="http://www.w3.org/2000/svg" xmlns:bx="https://boxy-svg.com">
  <defs>
    <bx:grid x="0" y="0" width="16" height="16"/>
  </defs>
  <g style="">
    <title>_ Working</title>
    <path style="fill: rgb(216, 216, 216); stroke-linecap: round; stroke-linejoin: round; stroke-width: 33px; stroke: rgba(0, 0, 0, 0.19); pointer-events: none; visibility: hidden;" d="M 64 256 L 192 128 L 352 96 L 384 128 L 448 160 L 446.711 383.894 L 159.797 384 L 64 256 Z">
      <title>Original path with stroke</title>
    </path>
    <path style="fill: rgba(234, 82, 82, 0.64); visibility: hidden;" d="M 469.852 177.078 C 477.771 180.878 480.077 186.184 479.998 191.937 C 479.118 256 477.98 392.664 478.309 399.238 C 478.856 410.169 470.654 415.674 462.774 415.571 C 451.443 415.422 155.173 415.976 142.897 416 C 135.629 416.014 130.259 410.652 126.932 405.93 C 110.791 383.022 36.93 286.55 33.668 281.702 C 26.768 271.448 32.204 262.636 34.899 260.032 C 75.133 221.157 132.955 177.968 160.503 150.926 C 165.346 146.172 169.065 144.87 179.138 142.729 C 188.908 140.653 349.773 114.947 360.73 112.664 C 371.393 110.442 375.309 112.981 379.456 117.204 C 389.118 127.043 416 160 416 160 C 416 160 463.264 173.917 469.852 177.078 Z">
      <title>Rounded path</title>
    </path>
    <path style="fill: rgb(178, 178, 174); visibility: hidden;" d="M 469.852 177.078 C 477.771 180.878 480.077 186.184 479.998 191.937 C 479.118 256 477.98 392.664 478.309 399.238 C 478.856 410.169 470.654 415.674 462.774 415.571 C 451.443 415.422 155.173 415.976 142.897 416 C 135.629 416.014 130.259 410.652 126.932 405.93 C 110.791 383.022 36.93 286.55 33.668 281.702 C 26.768 271.448 32.204 262.636 34.899 260.032 C 75.133 221.157 132.955 177.968 160.503 150.926 C 165.346 146.172 169.065 144.87 179.138 142.729 C 188.908 140.653 349.773 114.947 360.73 112.664 C 371.393 110.442 375.309 112.981 379.456 117.204 C 389.118 127.043 416 160 416 160 C 416 160 463.264 173.917 469.852 177.078 Z">
      <title>Backing Original</title>
    </path>
    <path style="fill: none; stroke-width: 5px; visibility: hidden;" d="M 248.399 297.652 C 248.399 297.652 239.916 306.543 247.152 311.375 C 257.255 318.121 261.597 307.583 273.742 307.847 C 285.615 308.105 290.055 319.465 298.757 312.244 C 305.574 306.587 295.289 296.209 295.289 296.209">
      <title>Original Mouth Stroke</title>
    </path>
    <g style="visibility: hidden;">
      <title>Plaster</title>
      <path d="M 144 32 H 208 A 16 16 0 0 1 224 48 V 48 A 16 16 0 0 1 208 64 H 144 A 16 16 0 0 1 128 48 V 48 A 16 16 0 0 1 144 32 Z" style="fill: rgb(229, 192, 169);">
        <title>Backing</title>
      </path>
      <path d="M 164 35 H 188 A 4 4 0 0 1 192 39 V 57 A 4 4 0 0 1 188 61 H 164 A 4 4 0 0 1 160 57 V 39 A 4 4 0 0 1 164 35 Z" style="fill: rgb(219, 160, 123);">
        <title>Cover</title>
      </path>
      <g transform="matrix(0.909624, 0, 0, 0.909624, 16.865139, 4.276351)" style="">
        <title>Breathing Holes</title>
        <ellipse style="fill: rgb(241, 221, 208);" cx="166" cy="42" rx="2" ry="2"/>
        <ellipse style="fill: rgb(241, 221, 208);" cx="172" cy="42" rx="2" ry="2"/>
        <ellipse style="fill: rgb(241, 221, 208);" cx="178" cy="42" rx="2" ry="2"/>
        <ellipse style="fill: rgb(241, 221, 208);" cx="184" cy="42" rx="2" ry="2"/>
        <ellipse style="fill: rgb(241, 221, 208);" cx="169" cy="48" rx="2" ry="2"/>
        <ellipse style="fill: rgb(241, 221, 208);" cx="175" cy="48" rx="2" ry="2"/>
        <ellipse style="fill: rgb(241, 221, 208);" cx="181" cy="48" rx="2" ry="2"/>
        <ellipse style="fill: rgb(241, 221, 208);" cx="187" cy="48" rx="2" ry="2"/>
        <ellipse style="fill: rgb(241, 221, 208);" cx="166" cy="54" rx="2" ry="2"/>
        <ellipse style="fill: rgb(241, 221, 208);" cx="172" cy="54" rx="2" ry="2"/>
        <ellipse style="fill: rgb(241, 221, 208);" cx="178" cy="54" rx="2" ry="2"/>
        <ellipse style="fill: rgb(241, 221, 208);" cx="184" cy="54" rx="2" ry="2"/>
        <ellipse style="fill: rgb(241, 221, 208);" cx="163" cy="48" rx="2" ry="2"/>
      </g>
    </g>
  </g>
  <g style="">
    <title>Rock</title>
    <path style="fill: rgb(178, 178, 174); stroke-width: 5px;" d="M 469.852 177.078 C 477.771 180.878 480.077 186.184 479.998 191.937 C 479.118 256 477.98 392.664 478.309 399.238 C 478.856 410.169 470.654 415.674 462.774 415.571 C 451.443 415.422 155.173 415.976 142.897 416 C 135.629 416.014 130.259 410.652 126.932 405.93 C 119.46 395.326 99.621 368.96 80.142 343.215 L 90.493 341.333 L 90.296 327.57 L 85.774 335.631 L 75.398 336.949 C 54.536 309.398 35.297 284.123 33.668 281.702 C 26.768 271.448 32.204 262.636 34.899 260.032 C 75.133 221.157 132.955 177.968 160.503 150.926 C 163.106 148.371 165.384 146.813 168.498 145.586 L 175.266 155.574 L 174.571 143.756 C 175.938 143.424 177.449 143.088 179.138 142.729 C 188.908 140.653 349.773 114.947 360.73 112.664 C 371.393 110.442 375.309 112.981 379.456 117.204 C 382.461 120.264 387.133 125.562 392.143 131.408 L 388.178 138.911 L 397.376 137.563 C 406.894 148.836 416 160 416 160 C 416 160 463.264 173.917 469.852 177.078 Z">
      <title>Backing Cracked</title>
    </path>
    <path style="fill: rgb(161, 161, 156); stroke-width: 5px;" d="M 192 372.979 C 206.161 373.006 405.392 374.177 416.206 369.154 C 422.648 366.162 460.737 302.13 479.032 279.445 C 478.491 337.239 478.098 395.02 478.309 399.238 C 478.856 410.169 470.654 415.674 462.774 415.571 C 451.443 415.422 155.173 415.976 142.897 416 C 135.629 416.014 130.259 410.652 126.932 405.93 C 119.882 395.924 101.819 371.883 83.438 347.572 C 117.305 356.184 184.279 372.964 192 372.979 Z">
      <title>Bottom Shadow</title>
    </path>
    <path style="fill: rgb(193, 193, 190); stroke-width: 5px;" d="M 115.561 273.102 C 115.552 278.24 68.922 297.78 51.199 305.022 C 41.502 292.226 34.614 283.108 33.668 281.702 C 26.768 271.448 32.204 262.636 34.899 260.032 C 43.426 251.793 52.742 243.361 62.393 234.929 C 78.137 244.19 115.572 266.868 115.561 273.102 Z">
      <title>Left Highlight</title>
    </path>
    <path style="fill: rgb(161, 161, 156); stroke-width: 5px;" d="M 469.852 177.078 C 477.463 180.73 479.889 185.773 479.996 191.268 C 465.004 218.921 433.931 275.174 429.527 274.625 C 424.344 273.979 417.475 178.384 416.206 160.061 C 419.588 161.058 463.518 174.039 469.852 177.078 Z">
      <title>Top Shadow</title>
    </path>
    <g>
      <title>Blemishes</title>
      <ellipse style="fill: rgb(161, 161, 156); stroke-width: 5px;" cx="134.338" cy="235.942" rx="6.338" ry="6.686">
        <title>Blemish</title>
      </ellipse>
      <ellipse style="fill: rgb(161, 161, 156); stroke-width: 5px;" cx="153.919" cy="225.013" rx="6.338" ry="6.686">
        <title>Blemish</title>
      </ellipse>
      <ellipse style="fill: rgb(161, 161, 156); stroke-width: 5px;" cx="166.338" cy="249.314" rx="6.338" ry="6.686">
        <title>Blemish</title>
      </ellipse>
      <ellipse style="fill: rgb(161, 161, 156); stroke-width: 5px;" cx="409.662" cy="326.686" rx="6.338" ry="6.686">
        <title>Blemish</title>
      </ellipse>
      <ellipse style="fill: rgb(161, 161, 156); stroke-width: 5px;" cx="396.986" cy="305.686" rx="6.338" ry="6.686">
        <title>Blemish</title>
      </ellipse>
      <ellipse style="fill: rgb(161, 161, 156); stroke-width: 5px;" cx="417.518" cy="305.686" rx="6.338" ry="6.686">
        <title>Blemish</title>
      </ellipse>
    </g>
  </g>
  <g transform="matrix(1, 0, 0, 1, 0, 5)">
    <title>Face</title>
    <g transform="matrix(1, 0, 0, 1, 0, 2.416016)">
      <title>Left Face</title>
      <g>
        <title>Left Eye</title>
        <ellipse style="fill: rgb(31, 31, 30);" cx="215.586" cy="247.586" rx="23.586" ry="23.586"/>
        <ellipse style="fill: rgb(255, 255, 255);" cx="221.691" cy="244.704" rx="11.272" ry="11.272"/>
        <ellipse style="fill: rgb(255, 255, 255);" cx="203.657" cy="254.709" rx="4.446" ry="4.446"/>
        <ellipse style="fill: rgb(255, 255, 255);" cx="215.039" cy="263.427" rx="2.62" ry="2.62"/>
      </g>
      <path style="fill: rgb(32, 32, 30);" d="M 236.551 238.431 C 237.852 239.943 241.046 237.428 239.172 234.834 C 232.871 226.113 222.948 220.53 213.758 214.931 C 211.635 213.638 209.226 218.236 211.326 219.364 C 226.563 227.551 229.677 230.44 236.551 238.431 Z">
        <title>Left Brow</title>
      </path>
      <ellipse style="fill: rgb(252, 181, 181);" cx="215.614" cy="280.878" rx="16" ry="4.706">
        <title>Left Blush</title>
      </ellipse>
    </g>
    <g transform="matrix(1, 0, 0, 1, 0, 2.416016)">
      <title>Right Face</title>
      <g transform="matrix(1, 0, 0, 1, 112.828003, 0)">
        <title>Right Eye</title>
        <ellipse style="fill: rgb(31, 31, 30);" cx="215.586" cy="247.586" rx="23.586" ry="23.586"/>
        <ellipse style="fill: rgb(255, 255, 255);" cx="221.691" cy="244.704" rx="11.272" ry="11.272"/>
        <ellipse style="fill: rgb(255, 255, 255);" cx="203.657" cy="254.709" rx="4.446" ry="4.446"/>
        <ellipse style="fill: rgb(255, 255, 255);" cx="215.039" cy="263.427" rx="2.62" ry="2.62"/>
      </g>
      <path style="fill: rgb(32, 32, 30);" d="M 330.862 215.16 C 332.163 213.648 335.357 216.163 333.483 218.757 C 327.182 227.478 317.259 233.061 308.069 238.66 C 305.946 239.953 303.537 235.355 305.637 234.227 C 320.874 226.04 323.988 223.151 330.862 215.16 Z" transform="matrix(-1, 0, 0, -1, 638.885834, 453.590836)">
        <title>Right Brow</title>
      </path>
      <ellipse style="fill: rgb(252, 181, 181);" cx="329.026" cy="280.878" rx="16" ry="4.706">
        <title>Right Blush</title>
      </ellipse>
    </g>
    <path d="M 246.103 292.664 C 245.512 293.3 244.154 294.487 242.766 297.713 C 242.075 299.317 241.53 301.578 241.821 303.556 C 242.108 305.515 243.561 307.822 245.764 309.454 C 251.827 312.997 256.657 312.163 260.716 310.318 C 264.731 308.492 268.303 306.026 273.688 306.346 C 278.926 306.244 282.437 309.01 286.259 311.055 C 288.193 312.089 290.487 313.071 292.774 313.139 C 295.033 313.205 297.779 312.196 300.353 310.168 C 302.431 308.227 303.598 305.552 303.591 303.344 C 303.584 301.162 302.737 298.756 301.797 296.951 C 299.907 293.32 299.111 292.169 297.065 290.449 C 294.93 288.655 291.114 291.191 293.513 293.969 C 294.845 295.511 295.814 296.287 297.362 299.26 C 298.141 300.756 298.587 302.005 298.591 303.36 C 298.595 304.689 298.781 306.029 297.451 306.917 C 295.674 308.5 294.312 308.182 292.92 308.141 C 291.556 308.101 290.366 307.581 288.618 306.646 C 285.076 304.751 280.431 301.708 273.796 301.348 C 267.036 301.404 262.365 304.075 258.646 305.766 C 254.972 307.437 252.554 308.879 248.225 306.014 C 246.81 305.23 246.924 303.896 246.768 302.829 C 246.614 301.781 246.832 300.912 247.358 299.69 C 248.403 297.263 249.664 295.82 250.695 294.64 C 252.817 292.209 248.789 289.774 246.103 292.664 Z" style="">
      <title>Mouth</title>
    </path>
  </g>
  <g transform="matrix(-0.707107, -0.707107, 0.707107, -0.707107, 493.254852, 369.137115)" style="">
    <title>Plaster</title>
    <path d="M 144 32 H 208 A 16 16 0 0 1 224 48 V 48 A 16 16 0 0 1 208 64 H 144 A 16 16 0 0 1 128 48 V 48 A 16 16 0 0 1 144 32 Z" style="fill: rgb(229, 192, 169);">
      <title>Backing</title>
    </path>
    <path d="M 164 35 H 188 A 4 4 0 0 1 192 39 V 57 A 4 4 0 0 1 188 61 H 164 A 4 4 0 0 1 160 57 V 39 A 4 4 0 0 1 164 35 Z" style="fill: rgb(219, 160, 123);">
      <title>Cover</title>
    </path>
    <g transform="matrix(0.909624, 0, 0, 0.909624, 16.865139, 4.276351)" style="">
      <title>Breathing Holes</title>
      <ellipse style="fill: rgb(241, 221, 208);" cx="166" cy="42" rx="2" ry="2"/>
      <ellipse style="fill: rgb(241, 221, 208);" cx="172" cy="42" rx="2" ry="2"/>
      <ellipse style="fill: rgb(241, 221, 208);" cx="178" cy="42" rx="2" ry="2"/>
      <ellipse style="fill: rgb(241, 221, 208);" cx="184" cy="42" rx="2" ry="2"/>
      <ellipse style="fill: rgb(241, 221, 208);" cx="169" cy="48" rx="2" ry="2"/>
      <ellipse style="fill: rgb(241, 221, 208);" cx="175" cy="48" rx="2" ry="2"/>
      <ellipse style="fill: rgb(241, 221, 208);" cx="181" cy="48" rx="2" ry="2"/>
      <ellipse style="fill: rgb(241, 221, 208);" cx="187" cy="48" rx="2" ry="2"/>
      <ellipse style="fill: rgb(241, 221, 208);" cx="166" cy="54" rx="2" ry="2"/>
      <ellipse style="fill: rgb(241, 221, 208);" cx="172" cy="54" rx="2" ry="2"/>
      <ellipse style="fill: rgb(241, 221, 208);" cx="178" cy="54" rx="2" ry="2"/>
      <ellipse style="fill: rgb(241, 221, 208);" cx="184" cy="54" rx="2" ry="2"/>
      <ellipse style="fill: rgb(241, 221, 208);" cx="163" cy="48" rx="2" ry="2"/>
    </g>
  </g>
</svg>