<?xml version="1.0" encoding="utf-8"?>
<svg viewBox="0 0 1552 368" preserveAspectRatio="xMidYMin" xmlns="http://www.w3.org/2000/svg" xmlns:bx="https://boxy-svg.com">
  <defs>
    <bx:grid x="0" y="0" width="16" height="16"/>
  </defs>
  <g style="visibility: hidden;" transform="matrix(1, 0, 0, 1, 0, -80.028389)">
    <title>_ Working</title>
    <text style="fill: rgb(44, 44, 41); font-family: Arial, sans-serif; font-size: 89px; font-style: italic; letter-spacing: -2px; white-space: pre; visibility: hidden;" x="544" y="207.789"><title>FT.com</title>FT.com</text>
    <text style="fill: rgb(44, 44, 41); font-family: Roboto; font-size: 175px; font-weight: 500; letter-spacing: -2px; white-space: pre; visibility: hidden;" x="531" y="383.882"><title>Reliability Kit</title>Reliability Kit</text>
  </g>
  <g transform="matrix(1, 0, 0, 1, 0, -80.028389)">
    <title>Rock</title>
    <path d="M 472.015 172.57 C 476.556 174.857 480.246 178.019 482.179 181.148 C 484.191 184.407 484.988 188.601 484.998 192.006 C 484.118 256.055 482.977 392.56 483.303 398.988 C 483.346 405.634 480.756 411.847 477.087 415.222 C 473.37 418.641 467.477 420.492 462.708 420.571 C 451.415 420.422 155.182 420.976 142.907 421 C 133.867 420.283 126.449 413.861 122.845 408.81 C 115.419 398.269 31.234 287.034 29.52 284.493 C 25.651 278.162 24.814 271.443 25.801 266.93 C 26.844 262.161 29.778 258.086 31.425 256.436 C 71.9 217.356 129.708 174.181 157.001 147.358 C 159.943 144.523 163.166 142.583 166.665 140.934 C 168.784 139.935 171.126 139.494 173.391 138.897 C 174.946 138.487 176.387 138.202 178.099 137.838 C 187.994 135.739 348.867 110.031 359.71 107.769 C 372.243 105.897 378.453 109.132 383.023 113.701 C 386.12 116.859 390.906 122.282 395.94 128.154 L 401.196 134.337 C 410.741 145.643 416.294 152.466 418.896 155.643 C 427.001 158.048 465.052 169.265 472.015 172.57 Z" style="fill: rgb(104, 104, 100);">
      <title>Outline</title>
    </path>
    <path style="fill: rgb(178, 178, 174);" d="M 469.852 177.078 C 477.771 180.878 480.077 186.184 479.998 191.937 C 479.118 256 477.98 392.664 478.309 399.238 C 478.856 410.169 470.654 415.674 462.774 415.571 C 451.443 415.422 155.173 415.976 142.897 416 C 135.629 416.014 130.259 410.652 126.932 405.93 C 119.46 395.326 99.621 368.96 80.142 343.215 L 90.493 341.333 L 90.296 327.57 L 85.774 335.631 L 75.398 336.949 C 54.536 309.398 35.297 284.123 33.668 281.702 C 26.768 271.448 32.204 262.636 34.899 260.032 C 75.133 221.157 132.955 177.968 160.503 150.926 C 163.106 148.371 165.384 146.813 168.498 145.586 L 175.266 155.574 L 174.571 143.756 C 175.938 143.424 177.449 143.088 179.138 142.729 C 188.908 140.653 349.773 114.947 360.73 112.664 C 371.393 110.442 375.309 112.981 379.456 117.204 C 382.461 120.264 387.133 125.562 392.143 131.408 L 388.178 138.911 L 397.376 137.563 C 406.894 148.836 416 160 416 160 C 416 160 463.264 173.917 469.852 177.078 Z">
      <title>Backing</title>
    </path>
    <path style="fill: rgb(163, 163, 158);" d="M 416.783 259.275 C 410.548 257.692 414.758 177.778 415.789 159.742 C 415.928 159.911 416 160 416 160 C 416 160 463.264 173.917 469.852 177.078 C 471.564 177.899 473.014 178.791 474.233 179.743 C 455.769 209.208 422.531 260.735 416.783 259.275 Z">
      <title>Shadow</title>
    </path>
    <path style="fill: rgb(171, 171, 166);" d="M 384.914 406.414 C 384.914 406.414 411.276 283.478 416.68 281.082 C 421.049 279.145 460.774 342.248 478.323 370.569 C 478.283 378.166 478.258 384.58 478.252 389.422 C 466.947 396.768 448.141 408.973 448 408.973 C 447.799 408.973 385.261 406.381 384.914 406.414 Z">
      <title>Shadow</title>
    </path>
    <path style="fill: rgb(153, 153, 148);" d="M 159.483 398.395 C 165.506 401.216 441.999 400 448.48 399.325 C 451.31 399.03 465.826 387.057 478.295 376.361 C 478.235 389.262 478.233 397.72 478.309 399.238 C 478.856 410.169 470.654 415.674 462.774 415.571 C 451.443 415.422 155.173 415.976 142.897 416 C 135.629 416.014 130.259 410.652 126.932 405.93 C 121.095 397.646 107.711 379.744 92.847 360.033 C 114.543 372.677 155.826 396.682 159.483 398.395 Z">
      <title>Shadow</title>
    </path>
    <path style="fill: rgb(171, 171, 166);" d="M 434.718 271.955 C 434.644 268.459 463.475 231.385 479.757 210.733 C 479.313 247.433 478.845 297.025 478.55 336.167 C 461.298 312.362 434.787 275.259 434.718 271.955 Z">
      <title>Shadow</title>
    </path>
    <path style="fill: rgb(193, 193, 190);" d="M 48.243 278.682 C 44.12 274.892 44.221 270.21 48.646 265.197 C 58.459 254.079 77.472 240.009 82.416 236.235 C 87.781 232.14 98.231 267.626 98.116 273.622 C 98.001 279.638 85.116 306.533 79.246 302.355 C 73.435 298.219 57.816 287.482 48.243 278.682 Z">
      <title>Highlight</title>
    </path>
    <g>
      <title>Blemishes</title>
      <ellipse style="fill: rgb(163, 163, 158);" cx="133.207" cy="245.207" rx="5.207" ry="5.207">
        <title>Blemish</title>
      </ellipse>
      <ellipse style="fill: rgb(163, 163, 158);" cx="149.207" cy="229.207" rx="5.207" ry="5.207">
        <title>Blemish</title>
      </ellipse>
      <ellipse style="fill: rgb(163, 163, 158);" cx="149.207" cy="250.793" rx="5.207" ry="5.207">
        <title>Blemish</title>
      </ellipse>
      <ellipse style="fill: rgb(163, 163, 158);" cx="383.423" cy="362.793" rx="5.207" ry="5.207">
        <title>Blemish</title>
      </ellipse>
      <ellipse style="fill: rgb(163, 163, 158);" cx="389.207" cy="346.793" ry="5.207" rx="5.207">
        <title>Blemish</title>
      </ellipse>
      <ellipse style="fill: rgb(163, 163, 158);" cx="389.207" cy="154.793" ry="5.207" rx="5.207">
        <title>Blemish</title>
      </ellipse>
      <ellipse style="fill: rgb(163, 163, 158);" cx="373.207" cy="149.207" ry="5.207" rx="5.207">
        <title>Blemish</title>
      </ellipse>
      <ellipse style="fill: rgb(163, 163, 158);" cx="378.793" cy="170.793" ry="5.207" rx="5.207">
        <title>Blemish</title>
      </ellipse>
    </g>
  </g>
  <g transform="matrix(1, 0, 0, 1, 16, -66.028381)">
    <title>Face</title>
    <g transform="matrix(1, 0, 0, 1, 0, 2.416016)">
      <title>Left Face</title>
      <g>
        <title>Eye</title>
        <ellipse style="fill: rgb(44, 44, 42);" cx="215.586" cy="247.586" rx="23.586" ry="23.586">
          <title>Outer</title>
        </ellipse>
        <ellipse style="fill: rgb(255, 255, 255);" cx="221.691" cy="244.704" rx="11.272" ry="11.272">
          <title>Highlight</title>
        </ellipse>
        <ellipse style="fill: rgb(255, 255, 255);" cx="203.657" cy="254.709" rx="4.446" ry="4.446">
          <title>Highlight</title>
        </ellipse>
        <ellipse style="fill: rgb(255, 255, 255);" cx="215.039" cy="263.427" rx="2.62" ry="2.62">
          <title>Highlight</title>
        </ellipse>
      </g>
      <path d="M 196 223.584 L 236 223.584 C 238.209 223.584 240 225.076 240 226.916 C 240.001 228.757 238.21 230.249 236 230.249 L 196 230.249 C 193.79 230.249 191.999 228.757 192 226.916 C 192 225.076 193.791 223.584 196 223.584 Z" style="stroke-width: 5px; fill: rgb(44, 44, 41);">
        <title>Brow</title>
      </path>
      <ellipse style="fill: rgb(252, 181, 181);" cx="215.614" cy="280.878" rx="16" ry="4.706">
        <title>Blush</title>
      </ellipse>
    </g>
    <g transform="matrix(1, 0, 0, 1, 0, 2.416016)">
      <title>Right Face</title>
      <g transform="matrix(1, 0, 0, 1, 112.828003, 0)">
        <title>Eye</title>
        <ellipse style="fill: rgb(44, 44, 42);" cx="215.586" cy="247.586" rx="23.586" ry="23.586">
          <title>Outer</title>
        </ellipse>
        <ellipse style="fill: rgb(255, 255, 255);" cx="221.691" cy="244.704" rx="11.272" ry="11.272">
          <title>Highlight</title>
        </ellipse>
        <ellipse style="fill: rgb(255, 255, 255);" cx="203.657" cy="254.709" rx="4.446" ry="4.446">
          <title>Highlight</title>
        </ellipse>
        <ellipse style="fill: rgb(255, 255, 255);" cx="215.039" cy="263.427" rx="2.62" ry="2.62">
          <title>Highlight</title>
        </ellipse>
      </g>
      <path d="M 308 223.584 L 348 223.584 C 350.209 223.584 352 225.076 352 226.916 C 352.001 228.757 350.21 230.249 348 230.249 L 308 230.249 C 305.79 230.249 303.999 228.757 304 226.916 C 304 225.076 305.791 223.584 308 223.584 Z" style="stroke-width: 5px; fill: rgb(44, 44, 41);">
        <title>Brow</title>
      </path>
      <ellipse style="fill: rgb(252, 181, 181);" cx="329.026" cy="280.878" rx="16" ry="4.706">
        <title>Blush</title>
      </ellipse>
    </g>
    <path d="M 246.103 292.664 C 245.512 293.3 244.154 294.487 242.766 297.713 C 242.075 299.317 241.53 301.578 241.821 303.556 C 242.108 305.515 243.561 307.822 245.764 309.454 C 251.827 312.997 256.657 312.163 260.716 310.318 C 264.731 308.492 268.303 306.026 273.688 306.346 C 278.926 306.244 282.437 309.01 286.259 311.055 C 288.193 312.089 290.487 313.071 292.774 313.139 C 295.033 313.205 297.779 312.196 300.353 310.168 C 302.431 308.227 303.598 305.552 303.591 303.344 C 303.584 301.162 302.737 298.756 301.797 296.951 C 299.907 293.32 299.111 292.169 297.065 290.449 C 294.93 288.655 291.114 291.191 293.513 293.969 C 294.845 295.511 295.814 296.287 297.362 299.26 C 298.141 300.756 298.587 302.005 298.591 303.36 C 298.595 304.689 298.781 306.029 297.451 306.917 C 295.674 308.5 294.312 308.182 292.92 308.141 C 291.556 308.101 290.366 307.581 288.618 306.646 C 285.076 304.751 280.431 301.708 273.796 301.348 C 267.036 301.404 262.365 304.075 258.646 305.766 C 254.972 307.437 252.554 308.879 248.225 306.014 C 246.81 305.23 246.924 303.896 246.768 302.829 C 246.614 301.781 246.832 300.912 247.358 299.69 C 248.403 297.263 249.664 295.82 250.695 294.64 C 252.817 292.209 248.789 289.774 246.103 292.664 Z" style="fill: rgb(78, 78, 75);">
      <title>Mouth</title>
    </path>
  </g>
  <path d="M 548.042 127.761 L 561.339 64.053 L 602.754 64.053 L 601.233 71.31 L 568.336 71.31 L 564.121 91.605 L 597.626 91.605 L 596.105 98.862 L 562.6 98.862 L 556.559 127.761 Z M 616.559 127.761 L 628.336 71.31 L 607.433 71.31 L 608.954 64.053 L 659.103 64.053 L 657.582 71.31 L 636.853 71.31 L 625.076 127.761 Z M 645.676 127.761 L 647.545 118.852 L 656.454 118.852 L 654.542 127.761 Z M 698.076 110.943 L 705.941 111.769 Q 702.986 120.417 697.532 124.61 Q 692.079 128.804 685.125 128.804 Q 677.607 128.804 672.936 123.937 Q 668.264 119.07 668.264 110.335 Q 668.264 102.773 671.263 95.472 Q 674.261 88.172 679.845 84.369 Q 685.43 80.567 692.6 80.567 Q 700.031 80.567 704.377 84.76 Q 708.723 88.954 708.723 95.864 L 700.987 96.385 Q 700.944 91.996 698.445 89.519 Q 695.946 87.042 691.861 87.042 Q 687.124 87.042 683.648 90.04 Q 680.171 93.039 678.194 99.145 Q 676.217 105.25 676.217 110.9 Q 676.217 116.81 678.824 119.765 Q 681.432 122.72 685.256 122.72 Q 689.08 122.72 692.578 119.808 Q 696.077 116.897 698.076 110.943 Z M 710.115 110.248 Q 710.115 96.733 718.068 87.867 Q 724.63 80.567 735.277 80.567 Q 743.621 80.567 748.727 85.782 Q 753.833 90.996 753.833 99.862 Q 753.833 107.814 750.617 114.659 Q 747.401 121.503 741.47 125.154 Q 735.538 128.804 728.976 128.804 Q 723.587 128.804 719.176 126.501 Q 714.765 124.198 712.44 119.982 Q 710.115 115.767 710.115 110.248 Z M 717.981 109.466 Q 717.981 115.984 721.11 119.352 Q 724.239 122.72 729.063 122.72 Q 731.583 122.72 734.06 121.699 Q 736.537 120.677 738.667 118.592 Q 740.796 116.506 742.295 113.833 Q 743.795 111.16 744.707 108.075 Q 746.054 103.773 746.054 99.818 Q 746.054 93.56 742.904 90.105 Q 739.753 86.651 734.973 86.651 Q 731.279 86.651 728.237 88.411 Q 725.195 90.171 722.74 93.56 Q 720.284 96.95 719.133 101.448 Q 717.981 105.946 717.981 109.466 Z M 756.178 127.761 L 765.826 81.61 L 773.691 81.61 L 772.083 89.215 Q 776.472 84.304 779.927 82.435 Q 783.382 80.567 787.424 80.567 Q 791.726 80.567 794.616 82.848 Q 797.506 85.13 798.418 89.215 Q 801.938 84.869 805.828 82.718 Q 809.717 80.567 814.019 80.567 Q 819.799 80.567 822.689 83.304 Q 825.579 86.042 825.579 90.996 Q 825.579 93.126 824.579 98.036 L 818.365 127.761 L 810.499 127.761 L 816.844 97.254 Q 817.67 93.517 817.67 91.909 Q 817.67 89.649 816.236 88.345 Q 814.802 87.042 812.194 87.042 Q 808.674 87.042 805.024 89.171 Q 801.373 91.301 799.353 94.755 Q 797.332 98.21 795.811 105.381 L 791.117 127.761 L 783.252 127.761 L 789.77 96.602 Q 790.466 93.43 790.466 92.083 Q 790.466 89.823 789.053 88.432 Q 787.641 87.042 785.381 87.042 Q 782.035 87.042 778.363 89.171 Q 774.691 91.301 772.388 95.103 Q 770.084 98.906 768.607 105.946 L 764.044 127.761 Z" style="fill: rgb(44, 44, 41); white-space: pre;">
    <title>FT.com Path</title>
  </path>
  <path d="M 589.362 255.917 L 565.265 255.917 L 565.265 303.854 L 543.646 303.854 L 543.646 179.44 L 587.396 179.44 Q 608.93 179.44 620.636 189.096 Q 632.343 198.751 632.343 217.038 Q 632.343 229.513 626.319 237.93 Q 620.294 246.347 609.528 250.875 L 637.47 302.743 L 637.47 303.854 L 614.313 303.854 Z M 565.265 238.571 L 587.482 238.571 Q 598.419 238.571 604.572 233.059 Q 610.724 227.548 610.724 217.978 Q 610.724 207.98 605.042 202.511 Q 599.359 197.042 588.08 196.872 L 565.265 196.872 Z M 689.548 305.563 Q 669.809 305.563 657.547 293.13 Q 645.286 280.697 645.286 260.019 L 645.286 257.455 Q 645.286 243.612 650.626 232.718 Q 655.967 221.823 665.622 215.756 Q 675.278 209.689 687.156 209.689 Q 706.04 209.689 716.337 221.737 Q 726.633 233.786 726.633 255.832 L 726.633 264.206 L 666.221 264.206 Q 667.161 275.656 673.868 282.321 Q 680.576 288.986 690.745 288.986 Q 705.015 288.986 713.987 277.45 L 725.181 288.131 Q 719.626 296.42 710.355 300.991 Q 701.084 305.563 689.548 305.563 Z M 687.07 226.352 Q 678.525 226.352 673.27 232.333 Q 668.015 238.314 666.562 248.996 L 706.125 248.996 L 706.125 247.458 Q 705.442 237.033 700.571 231.692 Q 695.701 226.352 687.07 226.352 Z M 762.829 303.854 L 742.065 303.854 L 742.065 172.604 L 762.829 172.604 Z M 805.509 303.854 L 784.745 303.854 L 784.745 211.398 L 805.509 211.398 Z M 783.463 187.387 Q 783.463 182.602 786.497 179.44 Q 789.53 176.278 795.17 176.278 Q 800.81 176.278 803.886 179.44 Q 806.962 182.602 806.962 187.387 Q 806.962 192.086 803.886 195.205 Q 800.81 198.324 795.17 198.324 Q 789.53 198.324 786.497 195.205 Q 783.463 192.086 783.463 187.387 Z M 881.356 303.854 Q 879.989 301.205 878.964 295.224 Q 869.052 305.563 854.696 305.563 Q 840.768 305.563 831.967 297.616 Q 823.165 289.669 823.165 277.963 Q 823.165 263.18 834.146 255.276 Q 845.126 247.372 865.548 247.372 L 878.28 247.372 L 878.28 241.305 Q 878.28 234.127 874.264 229.812 Q 870.248 225.497 862.045 225.497 Q 854.952 225.497 850.424 229.043 Q 845.895 232.589 845.895 238.058 L 825.131 238.058 Q 825.131 230.453 830.172 223.831 Q 835.214 217.208 843.887 213.449 Q 852.56 209.689 863.241 209.689 Q 879.476 209.689 889.132 217.849 Q 898.788 226.01 899.044 240.792 L 899.044 282.492 Q 899.044 294.967 902.548 302.401 L 902.548 303.854 Z M 858.541 288.9 Q 864.694 288.9 870.12 285.91 Q 875.546 282.919 878.28 277.877 L 878.28 260.446 L 867.086 260.446 Q 855.551 260.446 849.74 264.462 Q 843.93 268.478 843.93 275.827 Q 843.93 281.808 847.903 285.354 Q 851.876 288.9 858.541 288.9 Z M 999.915 258.566 Q 999.915 280.099 990.302 292.831 Q 980.689 305.563 963.855 305.563 Q 947.62 305.563 938.562 293.856 L 937.537 303.854 L 918.738 303.854 L 918.738 172.604 L 939.502 172.604 L 939.502 220.285 Q 948.474 209.689 963.684 209.689 Q 980.603 209.689 990.259 222.25 Q 999.915 234.811 999.915 257.37 Z M 979.151 256.771 Q 979.151 241.732 973.853 234.213 Q 968.555 226.693 958.472 226.693 Q 944.971 226.693 939.502 238.485 L 939.502 276.596 Q 945.056 288.644 958.643 288.644 Q 968.384 288.644 973.682 281.381 Q 978.98 274.118 979.151 259.42 Z M 1037.393 303.854 L 1016.628 303.854 L 1016.628 211.398 L 1037.393 211.398 Z M 1015.347 187.387 Q 1015.347 182.602 1018.38 179.44 Q 1021.414 176.278 1027.053 176.278 Q 1032.693 176.278 1035.769 179.44 Q 1038.845 182.602 1038.845 187.387 Q 1038.845 192.086 1035.769 195.205 Q 1032.693 198.324 1027.053 198.324 Q 1021.414 198.324 1018.38 195.205 Q 1015.347 192.086 1015.347 187.387 Z M 1080.085 303.854 L 1059.321 303.854 L 1059.321 172.604 L 1080.085 172.604 Z M 1122.765 303.854 L 1102.001 303.854 L 1102.001 211.398 L 1122.765 211.398 Z M 1100.719 187.387 Q 1100.719 182.602 1103.753 179.44 Q 1106.786 176.278 1112.426 176.278 Q 1118.066 176.278 1121.142 179.44 Q 1124.218 182.602 1124.218 187.387 Q 1124.218 192.086 1121.142 195.205 Q 1118.066 198.324 1112.426 198.324 Q 1106.786 198.324 1103.753 195.205 Q 1100.719 192.086 1100.719 187.387 Z M 1169.389 188.925 L 1169.389 211.398 L 1185.71 211.398 L 1185.71 226.779 L 1169.389 226.779 L 1169.389 278.39 Q 1169.389 283.688 1171.482 286.038 Q 1173.576 288.388 1178.959 288.388 Q 1182.548 288.388 1186.222 287.533 L 1186.222 303.598 Q 1179.13 305.563 1172.55 305.563 Q 1148.625 305.563 1148.625 279.159 L 1148.625 226.779 L 1133.415 226.779 L 1133.415 211.398 L 1148.625 211.398 L 1148.625 188.925 Z M 1231.894 274.118 L 1250.693 211.398 L 1272.824 211.398 L 1236.081 317.868 Q 1227.621 341.195 1207.37 341.195 Q 1202.841 341.195 1197.372 339.657 L 1197.372 323.593 L 1201.303 323.849 Q 1209.164 323.849 1213.138 320.987 Q 1217.111 318.124 1219.418 311.374 L 1222.409 303.427 L 1189.938 211.398 L 1212.326 211.398 Z M 1362.043 250.106 L 1347.944 265.06 L 1347.944 303.854 L 1326.325 303.854 L 1326.325 179.44 L 1347.944 179.44 L 1347.944 237.802 L 1359.907 223.019 L 1396.308 179.44 L 1422.456 179.44 L 1376.228 234.555 L 1425.105 303.854 L 1399.47 303.854 Z M 1454.724 303.854 L 1433.96 303.854 L 1433.96 211.398 L 1454.724 211.398 Z M 1432.679 187.387 Q 1432.679 182.602 1435.712 179.44 Q 1438.745 176.278 1444.385 176.278 Q 1450.025 176.278 1453.101 179.44 Q 1456.177 182.602 1456.177 187.387 Q 1456.177 192.086 1453.101 195.205 Q 1450.025 198.324 1444.385 198.324 Q 1438.745 198.324 1435.712 195.205 Q 1432.679 192.086 1432.679 187.387 Z M 1501.335 188.925 L 1501.335 211.398 L 1517.656 211.398 L 1517.656 226.779 L 1501.335 226.779 L 1501.335 278.39 Q 1501.335 283.688 1503.429 286.038 Q 1505.522 288.388 1510.906 288.388 Q 1514.494 288.388 1518.169 287.533 L 1518.169 303.598 Q 1511.076 305.563 1504.497 305.563 Q 1480.571 305.563 1480.571 279.159 L 1480.571 226.779 L 1465.361 226.779 L 1465.361 211.398 L 1480.571 211.398 L 1480.571 188.925 Z" style="fill: rgb(44, 44, 41); white-space: pre;">
    <title>Reliability Kit Path</title>
  </path>
</svg>